G04 #@! TF.GenerationSoftware,KiCad,Pcbnew,(6.0.11)*
G04 #@! TF.CreationDate,2023-02-16T20:31:25+09:00*
G04 #@! TF.ProjectId,corne-cherry,636f726e-652d-4636-9865-7272792e6b69,2.1*
G04 #@! TF.SameCoordinates,Original*
G04 #@! TF.FileFunction,Profile,NP*
%FSLAX46Y46*%
G04 Gerber Fmt 4.6, Leading zero omitted, Abs format (unit mm)*
G04 Created by KiCad (PCBNEW (6.0.11)) date 2023-02-16 20:31:25*
%MOMM*%
%LPD*%
G01*
G04 APERTURE LIST*
G04 #@! TA.AperFunction,Profile*
%ADD10C,0.150000*%
G04 #@! TD*
G04 APERTURE END LIST*
D10*
X27000000Y-134750000D02*
X27000000Y-153750000D01*
X64500000Y-100500000D02*
X46500000Y-100500000D01*
X112075002Y-181149995D02*
G75*
G03*
X111420556Y-181020344I-987602J-3268605D01*
G01*
X27500000Y-105250000D02*
G75*
G03*
X27000000Y-105750000I0J-500000D01*
G01*
X112075000Y-181150000D02*
X126369251Y-189410956D01*
X74396447Y-176103553D02*
G75*
G03*
X74750000Y-176250000I353553J353553D01*
G01*
X102000000Y-101000000D02*
G75*
G03*
X101500000Y-100500000I-500000J0D01*
G01*
X63853553Y-161646447D02*
G75*
G03*
X63500000Y-161500000I-353553J-353553D01*
G01*
X45500000Y-105250000D02*
G75*
G03*
X46000000Y-104750000I0J500000D01*
G01*
X46000000Y-101000000D02*
X46000000Y-104750000D01*
X74750000Y-176250000D02*
X111420556Y-181020344D01*
X27000000Y-115750000D02*
X27000000Y-105750000D01*
X141750000Y-105750000D02*
G75*
G03*
X141250000Y-105250000I-500000J0D01*
G01*
X121000000Y-103500000D02*
G75*
G03*
X120500000Y-103000000I-500000J0D01*
G01*
X141750000Y-105750000D02*
X141750000Y-165225000D01*
X141250000Y-105250000D02*
X121500000Y-105250000D01*
X83000000Y-98750000D02*
G75*
G03*
X82500000Y-98250000I-500000J0D01*
G01*
X63500000Y-161500000D02*
X27500000Y-161500000D01*
X27000000Y-134750000D02*
X27000000Y-115750000D01*
X27000000Y-161000000D02*
G75*
G03*
X27500000Y-161500000I500000J0D01*
G01*
X45500000Y-105250000D02*
X27500000Y-105250000D01*
X82500000Y-98250000D02*
X65500000Y-98250000D01*
X27000000Y-153750000D02*
X27000000Y-161000000D01*
X128297263Y-189031465D02*
X141522764Y-166097696D01*
X120500000Y-103000000D02*
X102500000Y-103000000D01*
X141522772Y-166097701D02*
G75*
G03*
X141750000Y-165225000I-1475072J850001D01*
G01*
X83000000Y-100000000D02*
G75*
G03*
X83500000Y-100500000I500000J0D01*
G01*
X121000000Y-104750000D02*
G75*
G03*
X121500000Y-105250000I500000J0D01*
G01*
X102000000Y-102500000D02*
X102000000Y-101000000D01*
X121000000Y-103500000D02*
X121000000Y-104750000D01*
X65000000Y-98750000D02*
X65000000Y-100000000D01*
X102000000Y-102500000D02*
G75*
G03*
X102500000Y-103000000I500000J0D01*
G01*
X64500000Y-100500000D02*
G75*
G03*
X65000000Y-100000000I0J500000D01*
G01*
X83000000Y-100000000D02*
X83000000Y-98750000D01*
X126369221Y-189411001D02*
G75*
G03*
X128297263Y-189031465I774979J1150101D01*
G01*
X101500000Y-100500000D02*
X83500000Y-100500000D01*
X63853553Y-161646447D02*
X74396447Y-176103553D01*
X65500000Y-98250000D02*
G75*
G03*
X65000000Y-98750000I0J-500000D01*
G01*
X46500000Y-100500000D02*
G75*
G03*
X46000000Y-101000000I0J-500000D01*
G01*
M02*
