M48
; DRILL file {KiCad (6.0.11)} date 2023年02月16日 20時31分42秒
; FORMAT={-:-/ absolute / metric / decimal}
; #@! TF.CreationDate,2023-02-16T20:31:42+09:00
; #@! TF.GenerationSoftware,Kicad,Pcbnew,(6.0.11)
; #@! TF.FileFunction,Plated,1,2,PTH
FMAT,2
METRIC
; #@! TA.AperFunction,Plated,PTH,ViaDrill
T1C0.400
; #@! TA.AperFunction,Plated,PTH,ComponentDrill
T2C0.813
; #@! TA.AperFunction,Plated,PTH,ComponentDrill
T3C1.000
; #@! TA.AperFunction,Plated,PTH,ComponentDrill
T4C1.300
; #@! TA.AperFunction,Plated,PTH,ComponentDrill
T5C2.200
; #@! TA.AperFunction,Plated,PTH,ComponentDrill
T6C4.100
%
G90
G05
T1
X27.95Y-127.355
X28.08Y-145.795
X28.6Y-119.775
X28.6Y-138.175
X28.6Y-156.775
X36.09Y-155.955
X43.2Y-138.375
X43.4Y-118.975
X43.4Y-156.775
X44.0Y-109.375
X44.0Y-115.375
X44.0Y-128.375
X44.0Y-131.975
X44.0Y-147.375
X44.0Y-150.975
X46.975Y-136.575
X47.6Y-133.175
X47.6Y-152.175
X47.8Y-114.775
X55.02Y-124.305
X55.09Y-151.065
X62.4Y-114.375
X62.4Y-133.175
X62.4Y-152.175
X63.0Y-104.575
X63.0Y-108.175
X63.0Y-123.575
X63.0Y-127.375
X63.0Y-142.575
X63.0Y-146.175
X64.55Y-136.925
X64.758Y-135.833
X66.6Y-111.775
X66.6Y-149.975
X66.7Y-131.375
X73.8Y-154.8
X73.85Y-120.775
X74.0Y-156.499
X75.4Y-162.375
X75.4Y-165.975
X76.2Y-171.575
X81.3Y-131.075
X81.4Y-149.775
X81.6Y-111.975
X82.0Y-102.375
X82.0Y-105.775
X82.0Y-121.175
X82.0Y-124.875
X82.0Y-140.175
X82.0Y-143.975
X82.36Y-160.185
X83.418Y-136.957
X83.51Y-170.625
X84.276Y-136.931
X85.6Y-114.175
X85.6Y-152.175
X85.7Y-133.775
X90.8Y-171.775
X91.4Y-161.975
X91.6Y-165.775
X93.7Y-141.755
X94.4Y-161.975
X94.4Y-168.175
X96.2Y-172.575
X96.788Y-177.08
X97.071Y-160.304
X97.15Y-157.65
X100.3Y-133.175
X100.4Y-152.175
X100.6Y-114.175
X101.0Y-104.575
X101.0Y-108.175
X101.0Y-123.675
X101.0Y-127.275
X101.0Y-142.575
X101.0Y-146.375
X101.525Y-137.564
X102.1Y-164.325
X102.468Y-139.407
X103.42Y-131.215
X103.7Y-156.675
X104.0Y-104.575
X104.0Y-108.175
X104.0Y-123.575
X104.0Y-127.275
X104.0Y-142.575
X104.0Y-146.175
X104.4Y-157.575
X104.6Y-116.575
X104.6Y-154.575
X104.8Y-136.075
X104.8Y-160.175
X105.6Y-156.875
X110.4Y-176.775
X111.85Y-153.665
X116.95Y-179.925
X118.0Y-173.975
X118.7Y-153.875
X119.4Y-116.575
X119.5Y-135.775
X125.597Y-120.452
X125.853Y-117.912
X127.104Y-120.829
X127.226Y-119.183
X130.6Y-181.975
X131.75Y-131.505
X132.06Y-126.185
X133.5Y-141.375
X137.194Y-119.043
X137.243Y-112.832
X137.524Y-123.637
X137.524Y-124.887
X137.524Y-136.338
X137.7Y-135.175
X137.72Y-132.655
X137.81Y-130.205
X137.865Y-128.718
X137.88Y-118.575
T2
X123.86Y-110.292
X123.86Y-112.832
X123.86Y-115.372
X123.86Y-117.912
X123.86Y-120.452
X123.86Y-122.992
X123.86Y-125.532
X123.86Y-128.072
X123.86Y-130.612
X123.86Y-133.152
X123.86Y-135.692
X123.86Y-138.232
X125.186Y-109.022
X125.186Y-111.562
X125.186Y-114.102
X125.186Y-116.642
X125.186Y-119.182
X125.186Y-121.722
X125.186Y-124.262
X125.186Y-126.802
X125.186Y-129.342
X125.186Y-131.882
X125.186Y-134.422
X125.186Y-136.962
X139.1Y-110.292
X139.1Y-112.832
X139.1Y-115.372
X139.1Y-117.912
X139.1Y-120.452
X139.1Y-122.992
X139.1Y-125.532
X139.1Y-128.072
X139.1Y-130.612
X139.1Y-133.152
X139.1Y-135.692
X139.1Y-138.232
X140.406Y-109.022
X140.406Y-111.562
X140.406Y-114.102
X140.406Y-116.642
X140.406Y-119.182
X140.406Y-121.722
X140.406Y-124.262
X140.406Y-126.802
X140.406Y-129.342
X140.406Y-131.882
X140.406Y-134.422
X140.406Y-136.962
T4
X139.9Y-141.0
X139.9Y-147.5
T5
X124.75Y-153.0
X139.25Y-161.5
T6
X45.5Y-124.0
X45.5Y-143.0
X69.75Y-160.0
X102.5Y-120.25
X116.25Y-167.75
T3
G00X130.135Y-151.95
M15
G01X129.635Y-151.95
M16
G05
G00X130.135Y-154.4
M15
G01X129.635Y-154.4
M16
G05
G00X131.635Y-150.2
M15
G01X131.135Y-150.2
M16
G05
G00X131.635Y-156.15
M15
G01X131.135Y-156.15
M16
G05
G00X135.635Y-150.2
M15
G01X135.135Y-150.2
M16
G05
G00X135.635Y-156.15
M15
G01X135.135Y-156.15
M16
G05
G00X138.635Y-150.2
M15
G01X138.135Y-150.2
M16
G05
G00X138.635Y-156.15
M15
G01X138.135Y-156.15
M16
G05
T0
M30
