M48
; DRILL file {KiCad (6.0.11)} date 2023年02月16日 20時31分42秒
; FORMAT={-:-/ absolute / metric / decimal}
; #@! TF.CreationDate,2023-02-16T20:31:42+09:00
; #@! TF.GenerationSoftware,Kicad,Pcbnew,(6.0.11)
; #@! TF.FileFunction,NonPlated,1,2,NPTH
FMAT,2
METRIC
; #@! TA.AperFunction,NonPlated,NPTH,ComponentDrill
T1C1.200
; #@! TA.AperFunction,NonPlated,NPTH,ComponentDrill
T2C1.700
; #@! TA.AperFunction,NonPlated,NPTH,ComponentDrill
T3C1.900
; #@! TA.AperFunction,NonPlated,NPTH,ComponentDrill
T4C3.000
; #@! TA.AperFunction,NonPlated,NPTH,ComponentDrill
T5C4.100
%
G90
G05
T1
X133.185Y-152.3
X133.185Y-154.05
X140.185Y-152.3
X140.185Y-154.05
T2
X31.5Y-114.375
X31.5Y-133.375
X31.5Y-152.375
X40.5Y-114.375
X40.5Y-133.375
X40.5Y-152.375
X50.5Y-109.625
X50.5Y-128.625
X50.5Y-147.625
X59.5Y-109.625
X59.5Y-128.625
X59.5Y-147.625
X69.5Y-107.25
X69.5Y-126.25
X69.5Y-145.25
X78.5Y-107.25
X78.5Y-126.25
X78.5Y-145.25
X79.0Y-167.25
X88.0Y-167.25
X88.5Y-109.625
X88.5Y-128.625
X88.5Y-147.625
X97.5Y-109.625
X97.5Y-128.625
X97.5Y-147.625
X100.153Y-168.835
X107.5Y-112.0
X107.5Y-131.0
X107.5Y-150.0
X108.847Y-171.165
X116.5Y-112.0
X116.5Y-131.0
X116.5Y-150.0
X122.853Y-171.5
X130.647Y-176.0
T3
X30.92Y-114.375
X30.92Y-133.375
X30.92Y-152.375
X41.08Y-114.375
X41.08Y-133.375
X41.08Y-152.375
X49.92Y-109.625
X49.92Y-128.625
X49.92Y-147.625
X60.08Y-109.625
X60.08Y-128.625
X60.08Y-147.625
X68.92Y-107.25
X68.92Y-126.25
X68.92Y-145.25
X78.42Y-167.25
X79.08Y-107.25
X79.08Y-126.25
X79.08Y-145.25
X87.92Y-109.625
X87.92Y-128.625
X87.92Y-147.625
X88.58Y-167.25
X98.08Y-109.625
X98.08Y-128.625
X98.08Y-147.625
X99.593Y-168.685
X106.92Y-112.0
X106.92Y-131.0
X106.92Y-150.0
X109.407Y-171.315
X117.08Y-112.0
X117.08Y-131.0
X117.08Y-150.0
X122.351Y-171.21
X131.149Y-176.29
T4
X32.19Y-116.915
X32.19Y-135.915
X32.19Y-154.915
X33.46Y-119.455
X33.46Y-138.455
X33.46Y-157.455
X38.54Y-119.455
X38.54Y-138.455
X38.54Y-157.455
X39.81Y-116.915
X39.81Y-135.915
X39.81Y-154.915
X51.19Y-112.165
X51.19Y-131.165
X51.19Y-150.165
X52.46Y-114.705
X52.46Y-133.705
X52.46Y-152.705
X57.54Y-114.705
X57.54Y-133.705
X57.54Y-152.705
X58.81Y-112.165
X58.81Y-131.165
X58.81Y-150.165
X70.19Y-109.79
X70.19Y-128.79
X70.19Y-147.79
X71.46Y-112.33
X71.46Y-131.33
X71.46Y-150.33
X76.54Y-112.33
X76.54Y-131.33
X76.54Y-150.33
X77.81Y-109.79
X77.81Y-128.79
X77.81Y-147.79
X79.69Y-169.79
X80.96Y-172.33
X86.04Y-172.33
X87.31Y-169.79
X89.19Y-112.165
X89.19Y-131.165
X89.19Y-150.165
X90.46Y-114.705
X90.46Y-133.705
X90.46Y-152.705
X95.54Y-114.705
X95.54Y-133.705
X95.54Y-152.705
X96.81Y-112.165
X96.81Y-131.165
X96.81Y-150.165
X100.162Y-171.467
X100.732Y-174.25
X105.639Y-175.564
X107.523Y-173.44
X108.19Y-114.54
X108.19Y-133.54
X108.19Y-152.54
X109.46Y-117.08
X109.46Y-136.08
X109.46Y-155.08
X114.54Y-117.08
X114.54Y-136.08
X114.54Y-155.08
X115.81Y-114.54
X115.81Y-133.54
X115.81Y-152.54
X122.01Y-176.879
X122.18Y-174.045
X126.41Y-179.419
X128.78Y-177.855
T5
X36.0Y-114.375
X36.0Y-133.375
X36.0Y-152.375
X55.0Y-109.625
X55.0Y-128.625
X55.0Y-147.625
X74.0Y-107.25
X74.0Y-126.25
X74.0Y-145.25
X83.5Y-167.25
X93.0Y-109.625
X93.0Y-128.625
X93.0Y-147.625
X104.5Y-170.0
X112.0Y-112.0
X112.0Y-131.0
X112.0Y-150.0
X126.75Y-173.75
T0
M30
